<?xml version="1.0" standalone="no"?>
<!DOCTYPE svg PUBLIC "-//W3C//DTD SVG 20010904//EN"
 "http://www.w3.org/TR/2001/REC-SVG-20010904/DTD/svg10.dtd">
<svg version="1.0" xmlns="http://www.w3.org/2000/svg"
 width="600.000000pt" height="600.000000pt" viewBox="0 0 600.000000 600.000000"
 preserveAspectRatio="xMidYMid meet">
<metadata>
Created by potrace 1.11, written by Peter Selinger 2001-2013
</metadata>
<g transform="translate(0.000000,600.000000) scale(0.100000,-0.100000)"
fill="#000000" stroke="none">
<path d="M3764 5702 c-43 -20 -65 -62 -70 -135 -2 -34 -5 -69 -7 -77 -5 -28
-41 -135 -47 -140 -3 -3 -16 -22 -29 -43 -13 -20 -33 -49 -44 -63 -34 -38
-137 -144 -142 -144 -3 0 -21 -16 -41 -35 -19 -19 -40 -35 -45 -35 -6 0 -8 -4
-5 -8 3 -5 -5 -14 -17 -21 -32 -17 -196 -185 -245 -251 -40 -55 -127 -210
-117 -210 3 0 -1 -13 -10 -30 -8 -16 -15 -32 -15 -35 0 -3 0 -6 -1 -7 -3 -10
-9 -38 -14 -63 -3 -16 -8 -41 -10 -55 l-5 -25 -828 -1 c-796 -1 -884 -3 -926
-20 -14 -5 -17 -4 -12 5 6 9 4 10 -10 2 -23 -12 -101 -41 -112 -41 -26 -1
-173 -67 -183 -82 -3 -6 -10 -10 -15 -10 -14 0 -64 -31 -64 -40 0 -4 -5 -8
-10 -8 -13 0 -26 -10 -86 -66 -24 -23 -44 -39 -44 -37 0 2 -15 -13 -32 -34
-18 -21 -37 -43 -43 -49 -28 -32 -45 -55 -45 -60 0 -3 -11 -20 -24 -37 -21
-28 -98 -173 -95 -179 1 -3 -6 -20 -32 -83 -4 -11 -18 -42 -30 -70 -12 -27
-22 -54 -24 -60 -1 -5 -7 -23 -14 -40 -7 -16 -12 -32 -12 -35 0 -3 -6 -14 -13
-25 -6 -11 -18 -40 -25 -65 -7 -25 -15 -52 -18 -60 -2 -8 -4 -17 -4 -20 -1 -3
-4 -9 -9 -15 -4 -5 -20 -59 -36 -120 -15 -60 -33 -113 -38 -117 -7 -5 -6 -8 2
-8 7 0 10 -4 7 -10 -6 -10 -11 -30 -21 -80 -2 -14 -7 -32 -10 -40 -4 -8 -7
-33 -9 -56 -1 -22 -6 -51 -10 -63 -4 -13 -8 -33 -10 -44 -15 -127 -18 -157
-18 -189 0 -20 -3 -35 -6 -34 -3 2 -7 -24 -8 -57 -4 -146 -12 -279 -16 -283
-3 -3 -1 -20 3 -39 4 -19 5 -33 1 -31 -3 2 -6 -139 -6 -314 0 -175 4 -316 8
-313 5 3 4 -4 -3 -16 -8 -16 -8 -26 -1 -35 7 -9 7 -16 -2 -26 -10 -10 -9 -11
2 -5 10 6 12 4 6 -5 -10 -16 -10 -164 0 -179 3 -6 1 -11 -5 -11 -8 0 -8 -6 0
-20 6 -12 7 -20 1 -20 -6 0 -6 -11 -1 -30 5 -19 5 -30 -1 -30 -6 0 -7 -4 -4
-10 3 -5 8 -36 10 -67 3 -51 8 -79 19 -118 2 -5 8 -23 14 -38 7 -16 12 -33 12
-38 0 -5 5 -9 12 -9 6 0 8 -3 5 -7 -6 -6 8 -33 37 -72 28 -37 119 -121 136
-126 11 -4 20 -11 20 -16 0 -5 3 -8 8 -7 4 0 25 -7 47 -17 22 -10 42 -19 45
-20 3 -1 24 -7 47 -13 94 -27 279 -15 354 23 14 8 29 11 33 8 3 -4 6 0 6 7 0
7 3 11 6 7 3 -3 28 10 55 29 27 19 51 34 53 34 9 0 96 90 96 99 0 5 7 11 15
15 8 3 15 13 15 21 0 9 4 13 10 10 5 -3 12 6 16 20 3 14 11 25 17 25 6 0 7 3
4 6 -4 4 3 15 15 25 11 11 18 19 14 19 -6 0 37 63 54 80 3 3 22 32 44 65 21
33 48 70 59 83 11 12 17 22 14 22 -4 0 2 10 13 23 11 13 56 76 101 142 45 65
87 125 95 132 8 8 14 21 14 29 0 8 5 14 10 14 6 0 10 7 10 15 0 8 5 15 10 15
6 0 10 6 10 14 0 8 4 16 8 18 5 2 26 30 47 63 22 33 43 61 47 63 5 2 8 10 8
18 0 8 3 14 8 14 4 0 13 13 20 28 6 16 21 38 32 50 11 12 20 25 20 29 0 4 10
20 23 35 l22 27 37 -19 c21 -10 38 -16 38 -13 0 3 6 1 12 -4 27 -21 118 -36
228 -38 63 -1 119 0 125 3 5 3 21 7 36 9 16 1 47 10 71 18 24 9 48 17 53 19
75 22 159 86 328 248 33 32 68 60 78 63 11 4 19 11 19 16 0 5 7 9 15 9 8 0 15
4 15 10 0 5 3 9 8 9 4 -1 10 0 15 1 4 1 10 3 15 5 4 1 16 6 27 11 25 11 206
12 258 1 21 -4 45 -14 53 -22 9 -8 20 -15 25 -15 13 0 73 -45 115 -85 189
-181 247 -223 379 -270 24 -9 62 -16 93 -18 12 0 22 -4 22 -7 0 -12 205 -8
212 4 6 8 8 8 8 0 0 -8 22 -5 67 7 37 11 71 18 75 17 3 -2 34 -46 69 -98 34
-52 66 -97 71 -98 4 -2 6 -8 2 -13 -3 -5 0 -9 5 -9 6 0 11 -6 11 -14 0 -8 4
-16 8 -18 10 -4 98 -133 92 -133 -3 0 7 -14 23 -30 15 -17 30 -38 33 -47 3
-10 9 -18 14 -18 5 0 12 -9 15 -20 3 -11 12 -26 18 -32 7 -7 32 -42 57 -78 24
-36 48 -66 52 -68 4 -2 8 -9 8 -15 0 -7 14 -28 30 -47 16 -19 30 -39 30 -43 0
-5 6 -15 13 -22 19 -22 30 -37 62 -85 17 -25 33 -46 38 -48 4 -2 7 -9 7 -15 0
-7 10 -24 23 -39 12 -15 38 -49 57 -75 44 -60 67 -83 74 -76 3 4 6 1 6 -5 0
-13 115 -92 134 -92 6 0 17 -5 24 -12 7 -7 12 -8 12 -3 0 6 4 4 9 -4 5 -7 20
-15 34 -16 14 -2 30 -6 35 -9 5 -3 44 -8 88 -11 43 -4 85 -8 92 -10 6 -3 12 0
12 4 0 5 10 9 23 9 83 -2 235 65 309 136 65 63 137 176 139 221 1 6 5 18 10
27 5 9 11 41 14 70 3 29 8 68 10 86 4 24 2 31 -7 26 -7 -5 -8 -3 -2 7 13 20
12 982 -1 991 -6 5 -5 8 3 8 7 0 11 4 8 9 -5 8 -14 143 -19 273 -1 32 -6 58
-11 58 -5 0 -3 6 3 13 6 8 8 17 4 21 -4 4 -9 24 -10 44 -4 56 -12 137 -13 137
-2 0 -9 37 -15 85 -9 63 -15 98 -31 168 -4 15 -7 39 -8 55 0 15 -4 27 -7 27
-3 0 -6 6 -6 13 -1 31 -13 72 -22 75 -6 2 -8 9 -5 16 3 7 -2 33 -10 58 -9 24
-17 53 -19 64 -2 10 -10 33 -16 49 -7 17 -14 38 -16 48 -6 29 -28 91 -37 103
-5 7 -10 20 -13 30 -2 11 -11 36 -19 56 -9 21 -15 39 -14 40 1 2 -5 14 -12 28
-8 14 -13 28 -12 33 1 4 -2 7 -8 7 -6 0 -9 3 -9 8 1 4 1 9 -1 12 -1 3 -3 16
-6 29 -2 13 -13 43 -24 67 -10 24 -16 44 -12 44 4 0 3 4 -3 8 -16 12 -45 69
-38 76 3 3 2 6 -4 6 -9 0 -28 32 -32 53 0 4 -9 15 -18 26 -10 10 -29 33 -43
52 -14 18 -37 47 -52 63 -16 17 -28 34 -28 38 0 5 -4 8 -10 8 -5 0 -22 13 -37
28 -16 16 -44 39 -63 52 -19 13 -37 27 -40 30 -3 3 -23 17 -45 30 -22 13 -43
29 -47 34 -4 6 -8 8 -8 4 0 -4 -28 7 -61 23 -34 17 -73 33 -87 35 -15 3 -32
10 -39 16 -7 6 -13 8 -13 4 0 -3 -11 -1 -26 4 -29 11 -76 21 -120 24 -16 1
-34 5 -40 8 -5 2 -371 4 -814 4 -707 -1 -806 1 -811 14 -9 22 56 197 82 220 3
3 15 21 27 40 31 49 69 90 83 90 7 0 10 3 6 6 -7 7 49 64 64 64 6 0 7 5 4 10
-3 6 -2 10 2 10 5 0 27 17 50 38 22 20 78 70 123 111 67 61 144 145 210 228
21 26 90 164 94 187 3 14 7 29 10 34 5 8 11 35 22 93 10 52 10 169 0 169 -5 0
-7 3 -3 6 7 7 -52 63 -68 65 -5 1 -21 2 -35 3 -15 2 -40 -4 -56 -12z"/>
</g>
</svg>
